<svg id="my-svg" width="100%" xmlns="http://www.w3.org/2000/svg" xmlns:xlink="http://www.w3.org/1999/xlink" class="flowchart" style="max-width: 1620.41px; background-color: white;" viewBox="0 0 1620.40625 982" role="graphics-document document" aria-roledescription="flowchart-v2"><style>#my-svg{font-family:"trebuchet ms",verdana,arial,sans-serif;font-size:16px;fill:#333;}@keyframes edge-animation-frame{from{stroke-dashoffset:0;}}@keyframes dash{to{stroke-dashoffset:0;}}#my-svg .edge-animation-slow{stroke-dasharray:9,5!important;stroke-dashoffset:900;animation:dash 50s linear infinite;stroke-linecap:round;}#my-svg .edge-animation-fast{stroke-dasharray:9,5!important;stroke-dashoffset:900;animation:dash 20s linear infinite;stroke-linecap:round;}#my-svg .error-icon{fill:#552222;}#my-svg .error-text{fill:#552222;stroke:#552222;}#my-svg .edge-thickness-normal{stroke-width:1px;}#my-svg .edge-thickness-thick{stroke-width:3.5px;}#my-svg .edge-pattern-solid{stroke-dasharray:0;}#my-svg .edge-thickness-invisible{stroke-width:0;fill:none;}#my-svg .edge-pattern-dashed{stroke-dasharray:3;}#my-svg .edge-pattern-dotted{stroke-dasharray:2;}#my-svg .marker{fill:#333333;stroke:#333333;}#my-svg .marker.cross{stroke:#333333;}#my-svg svg{font-family:"trebuchet ms",verdana,arial,sans-serif;font-size:16px;}#my-svg p{margin:0;}#my-svg .label{font-family:"trebuchet ms",verdana,arial,sans-serif;color:#333;}#my-svg .cluster-label text{fill:#333;}#my-svg .cluster-label span{color:#333;}#my-svg .cluster-label span p{background-color:transparent;}#my-svg .label text,#my-svg span{fill:#333;color:#333;}#my-svg .node rect,#my-svg .node circle,#my-svg .node ellipse,#my-svg .node polygon,#my-svg .node path{fill:#ECECFF;stroke:#9370DB;stroke-width:1px;}#my-svg .rough-node .label text,#my-svg .node .label text,#my-svg .image-shape .label,#my-svg .icon-shape .label{text-anchor:middle;}#my-svg .node .katex path{fill:#000;stroke:#000;stroke-width:1px;}#my-svg .rough-node .label,#my-svg .node .label,#my-svg .image-shape .label,#my-svg .icon-shape .label{text-align:center;}#my-svg .node.clickable{cursor:pointer;}#my-svg .root .anchor path{fill:#333333!important;stroke-width:0;stroke:#333333;}#my-svg .arrowheadPath{fill:#333333;}#my-svg .edgePath .path{stroke:#333333;stroke-width:2.0px;}#my-svg .flowchart-link{stroke:#333333;fill:none;}#my-svg .edgeLabel{background-color:rgba(232,232,232, 0.8);text-align:center;}#my-svg .edgeLabel p{background-color:rgba(232,232,232, 0.8);}#my-svg .edgeLabel rect{opacity:0.5;background-color:rgba(232,232,232, 0.8);fill:rgba(232,232,232, 0.8);}#my-svg .labelBkg{background-color:rgba(232, 232, 232, 0.5);}#my-svg .cluster rect{fill:#ffffde;stroke:#aaaa33;stroke-width:1px;}#my-svg .cluster text{fill:#333;}#my-svg .cluster span{color:#333;}#my-svg div.mermaidTooltip{position:absolute;text-align:center;max-width:200px;padding:2px;font-family:"trebuchet ms",verdana,arial,sans-serif;font-size:12px;background:hsl(80, 100%, 96.2745098039%);border:1px solid #aaaa33;border-radius:2px;pointer-events:none;z-index:100;}#my-svg .flowchartTitleText{text-anchor:middle;font-size:18px;fill:#333;}#my-svg rect.text{fill:none;stroke-width:0;}#my-svg .icon-shape,#my-svg .image-shape{background-color:rgba(232,232,232, 0.8);text-align:center;}#my-svg .icon-shape p,#my-svg .image-shape p{background-color:rgba(232,232,232, 0.8);padding:2px;}#my-svg .icon-shape rect,#my-svg .image-shape rect{opacity:0.5;background-color:rgba(232,232,232, 0.8);fill:rgba(232,232,232, 0.8);}#my-svg .label-icon{display:inline-block;height:1em;overflow:visible;vertical-align:-0.125em;}#my-svg .node .label-icon path{fill:currentColor;stroke:revert;stroke-width:revert;}#my-svg :root{--mermaid-font-family:"trebuchet ms",verdana,arial,sans-serif;}</style><g><marker id="my-svg_flowchart-v2-pointEnd" class="marker flowchart-v2" viewBox="0 0 10 10" refX="5" refY="5" markerUnits="userSpaceOnUse" markerWidth="8" markerHeight="8" orient="auto"><path d="M 0 0 L 10 5 L 0 10 z" class="arrowMarkerPath" style="stroke-width: 1; stroke-dasharray: 1, 0;"/></marker><marker id="my-svg_flowchart-v2-pointStart" class="marker flowchart-v2" viewBox="0 0 10 10" refX="4.5" refY="5" markerUnits="userSpaceOnUse" markerWidth="8" markerHeight="8" orient="auto"><path d="M 0 5 L 10 10 L 10 0 z" class="arrowMarkerPath" style="stroke-width: 1; stroke-dasharray: 1, 0;"/></marker><marker id="my-svg_flowchart-v2-circleEnd" class="marker flowchart-v2" viewBox="0 0 10 10" refX="11" refY="5" markerUnits="userSpaceOnUse" markerWidth="11" markerHeight="11" orient="auto"><circle cx="5" cy="5" r="5" class="arrowMarkerPath" style="stroke-width: 1; stroke-dasharray: 1, 0;"/></marker><marker id="my-svg_flowchart-v2-circleStart" class="marker flowchart-v2" viewBox="0 0 10 10" refX="-1" refY="5" markerUnits="userSpaceOnUse" markerWidth="11" markerHeight="11" orient="auto"><circle cx="5" cy="5" r="5" class="arrowMarkerPath" style="stroke-width: 1; stroke-dasharray: 1, 0;"/></marker><marker id="my-svg_flowchart-v2-crossEnd" class="marker cross flowchart-v2" viewBox="0 0 11 11" refX="12" refY="5.2" markerUnits="userSpaceOnUse" markerWidth="11" markerHeight="11" orient="auto"><path d="M 1,1 l 9,9 M 10,1 l -9,9" class="arrowMarkerPath" style="stroke-width: 2; stroke-dasharray: 1, 0;"/></marker><marker id="my-svg_flowchart-v2-crossStart" class="marker cross flowchart-v2" viewBox="0 0 11 11" refX="-1" refY="5.2" markerUnits="userSpaceOnUse" markerWidth="11" markerHeight="11" orient="auto"><path d="M 1,1 l 9,9 M 10,1 l -9,9" class="arrowMarkerPath" style="stroke-width: 2; stroke-dasharray: 1, 0;"/></marker><g class="root"><g class="clusters"><g class="cluster" id="subGraph4" data-look="classic"><rect style="" x="8" y="718" width="971.19921875" height="256"/><g class="cluster-label" transform="translate(393.599609375, 718)"><foreignObject width="200" height="48"><div xmlns="http://www.w3.org/1999/xhtml" style="display: table; white-space: break-spaces; line-height: 1.5; max-width: 200px; text-align: center; width: 200px;"><span class="nodeLabel"><p>Observability Layer - Telemetry</p></span></div></foreignObject></g></g><g class="cluster" id="subGraph3" data-look="classic"><rect style="" x="999.19921875" y="718" width="599.51171875" height="256"/><g class="cluster-label" transform="translate(1201.564453125, 718)"><foreignObject width="194.78125" height="24"><div xmlns="http://www.w3.org/1999/xhtml" style="display: table-cell; white-space: nowrap; line-height: 1.5; max-width: 200px; text-align: center;"><span class="nodeLabel"><p>Storage Layer - Persistence</p></span></div></foreignObject></g></g><g class="cluster" id="subGraph2" data-look="classic"><rect style="" x="383.1875" y="388" width="1103.9765625" height="280"/><g class="cluster-label" transform="translate(835.17578125, 388)"><foreignObject width="200" height="48"><div xmlns="http://www.w3.org/1999/xhtml" style="display: table; white-space: break-spaces; line-height: 1.5; max-width: 200px; text-align: center; width: 200px;"><span class="nodeLabel"><p>Services Layer - Business Logic</p></span></div></foreignObject></g></g><g class="cluster" id="subGraph1" data-look="classic"><rect style="" x="140.12890625" y="186" width="1468.73046875" height="152"/><g class="cluster-label" transform="translate(774.494140625, 186)"><foreignObject width="200" height="48"><div xmlns="http://www.w3.org/1999/xhtml" style="display: table; white-space: break-spaces; line-height: 1.5; max-width: 200px; text-align: center; width: 200px;"><span class="nodeLabel"><p>Orchestration Layer - Custom Hooks</p></span></div></foreignObject></g></g><g class="cluster" id="subGraph0" data-look="classic"><rect style="" x="21.25" y="8" width="1591.15625" height="128"/><g class="cluster-label" transform="translate(716.828125, 8)"><foreignObject width="200" height="48"><div xmlns="http://www.w3.org/1999/xhtml" style="display: table; white-space: break-spaces; line-height: 1.5; max-width: 200px; text-align: center; width: 200px;"><span class="nodeLabel"><p>UI Layer - React Components</p></span></div></foreignObject></g></g></g><g class="edgePaths"><path d="M752.508,94.497L787.925,101.414C823.342,108.331,894.177,122.166,929.594,133.249C965.012,144.333,965.012,152.667,965.012,161C965.012,169.333,965.012,177.667,919.202,190.785C873.392,203.903,781.772,221.806,735.962,230.758L690.152,239.709" id="L_UI_Hooks_0" class="edge-thickness-normal edge-pattern-solid edge-thickness-normal edge-pattern-solid flowchart-link" style=";" data-edge="true" data-et="edge" data-id="L_UI_Hooks_0" data-points="W3sieCI6NzUyLjUwNzgxMjUsInkiOjk0LjQ5Njc3NTUwMDk1OTZ9LHsieCI6OTY1LjAxMTcxODc1LCJ5IjoxMzZ9LHsieCI6OTY1LjAxMTcxODc1LCJ5IjoxNjF9LHsieCI6OTY1LjAxMTcxODc1LCJ5IjoxODZ9LHsieCI6Njg2LjIyNjU2MjUsInkiOjI0MC40NzYzMjI0NzYzMjI0OH1d" marker-end="url(#my-svg_flowchart-v2-pointEnd)"/><path d="M1445.508,111L1445.508,115.167C1445.508,119.333,1445.508,127.667,1445.508,136C1445.508,144.333,1445.508,152.667,1445.508,161C1445.508,169.333,1445.508,177.667,1445.508,187.333C1445.508,197,1445.508,208,1445.508,213.5L1445.508,219" id="L_Sections_ChartHooks_0" class="edge-thickness-normal edge-pattern-solid edge-thickness-normal edge-pattern-solid flowchart-link" style=";" data-edge="true" data-et="edge" data-id="L_Sections_ChartHooks_0" data-points="W3sieCI6MTQ0NS41MDc4MTI1LCJ5IjoxMTF9LHsieCI6MTQ0NS41MDc4MTI1LCJ5IjoxMzZ9LHsieCI6MTQ0NS41MDc4MTI1LCJ5IjoxNjF9LHsieCI6MTQ0NS41MDc4MTI1LCJ5IjoxODZ9LHsieCI6MTQ0NS41MDc4MTI1LCJ5IjoyMjN9XQ==" marker-end="url(#my-svg_flowchart-v2-pointEnd)"/><path d="M203.383,111L209.973,115.167C216.564,119.333,229.745,127.667,236.335,136C242.926,144.333,242.926,152.667,242.926,161C242.926,169.333,242.926,177.667,279.443,190.164C315.96,202.661,388.995,219.322,425.513,227.652L462.03,235.983" id="L_Controls_Hooks_0" class="edge-thickness-normal edge-pattern-solid edge-thickness-normal edge-pattern-solid flowchart-link" style=";" data-edge="true" data-et="edge" data-id="L_Controls_Hooks_0" data-points="W3sieCI6MjAzLjM4MjYyOTM5NDUzMTI1LCJ5IjoxMTF9LHsieCI6MjQyLjkyNTc4MTI1LCJ5IjoxMzZ9LHsieCI6MjQyLjkyNTc4MTI1LCJ5IjoxNjF9LHsieCI6MjQyLjkyNTc4MTI1LCJ5IjoxODZ9LHsieCI6NDY1LjkyOTY4NzUsInkiOjIzNi44NzI1MTI4MDk2ODk2Mn1d" marker-end="url(#my-svg_flowchart-v2-pointEnd)"/><path d="M686.227,275.083L774.514,285.569C862.801,296.055,1039.375,317.028,1127.662,331.68C1215.949,346.333,1215.949,354.667,1215.949,363C1215.949,371.333,1215.949,379.667,1195.039,389.677C1174.129,399.687,1132.309,411.374,1111.399,417.217L1090.489,423.061" id="L_Hooks_Sync_0" class="edge-thickness-normal edge-pattern-solid edge-thickness-normal edge-pattern-solid flowchart-link" style=";" data-edge="true" data-et="edge" data-id="L_Hooks_Sync_0" data-points="W3sieCI6Njg2LjIyNjU2MjUsInkiOjI3NS4wODI3NjIwMzA5MjY2M30seyJ4IjoxMjE1Ljk0OTIxODc1LCJ5IjozMzh9LHsieCI6MTIxNS45NDkyMTg3NSwieSI6MzYzfSx7IngiOjEyMTUuOTQ5MjE4NzUsInkiOjM4OH0seyJ4IjoxMDg2LjYzNjcxODc1LCJ5Ijo0MjQuMTM3MjcyMjkzMTAyM31d" marker-end="url(#my-svg_flowchart-v2-pointEnd)"/><path d="M1395.527,301L1387.624,307.167C1379.721,313.333,1363.915,325.667,1356.012,336C1348.109,346.333,1348.109,354.667,1348.109,363C1348.109,371.333,1348.109,379.667,1348.109,394.5C1348.109,409.333,1348.109,430.667,1348.109,454C1348.109,477.333,1348.109,502.667,1347.385,520.839C1346.661,539.011,1345.212,550.023,1344.487,555.528L1343.763,561.034" id="L_ChartHooks_Cache_0" class="edge-thickness-normal edge-pattern-solid edge-thickness-normal edge-pattern-solid flowchart-link" style=";" data-edge="true" data-et="edge" data-id="L_ChartHooks_Cache_0" data-points="W3sieCI6MTM5NS41MjcwMzUzNjE4NDIsInkiOjMwMX0seyJ4IjoxMzQ4LjEwOTM3NSwieSI6MzM4fSx7IngiOjEzNDguMTA5Mzc1LCJ5IjozNjN9LHsieCI6MTM0OC4xMDkzNzUsInkiOjM4OH0seyJ4IjoxMzQ4LjEwOTM3NSwieSI6NDUyfSx7IngiOjEzNDguMTA5Mzc1LCJ5Ijo1Mjh9LHsieCI6MTM0My4yNDA5NTM5NDczNjgzLCJ5Ijo1NjV9XQ==" marker-end="url(#my-svg_flowchart-v2-pointEnd)"/><path d="M890.781,289.763L862.436,297.802C834.091,305.842,777.401,321.921,749.056,334.127C720.711,346.333,720.711,354.667,720.711,363C720.711,371.333,720.711,379.667,747.816,390.349C774.921,401.032,829.131,414.064,856.236,420.58L883.341,427.096" id="L_AutoSync_Sync_0" class="edge-thickness-normal edge-pattern-solid edge-thickness-normal edge-pattern-solid flowchart-link" style=";" data-edge="true" data-et="edge" data-id="L_AutoSync_Sync_0" data-points="W3sieCI6ODkwLjc4MTI1LCJ5IjoyODkuNzYyNjY4Mzc3MTY0ODZ9LHsieCI6NzIwLjcxMDkzNzUsInkiOjMzOH0seyJ4Ijo3MjAuNzEwOTM3NSwieSI6MzYzfSx7IngiOjcyMC43MTA5Mzc1LCJ5IjozODh9LHsieCI6ODg3LjIzMDQ2ODc1LCJ5Ijo0MjguMDMxMzQxMjQ2OTAwMzV9XQ==" marker-end="url(#my-svg_flowchart-v2-pointEnd)"/><path d="M887.23,467.947L824.653,477.956C762.076,487.965,636.921,507.982,574.343,525.491C511.766,543,511.766,558,511.766,565.5L511.766,573" id="L_Sync_Range_0" class="edge-thickness-normal edge-pattern-solid edge-thickness-normal edge-pattern-solid flowchart-link" style=";" data-edge="true" data-et="edge" data-id="L_Sync_Range_0" data-points="W3sieCI6ODg3LjIzMDQ2ODc1LCJ5Ijo0NjcuOTQ2ODYwODk2MjI5MX0seyJ4Ijo1MTEuNzY1NjI1LCJ5Ijo1Mjh9LHsieCI6NTExLjc2NTYyNSwieSI6NTc3fV0=" marker-end="url(#my-svg_flowchart-v2-pointEnd)"/><path d="M1086.637,483.703L1109.855,491.086C1133.074,498.468,1179.512,513.234,1211.279,526.41C1243.047,539.585,1260.144,551.171,1268.693,556.963L1277.242,562.756" id="L_Sync_Cache_0" class="edge-thickness-normal edge-pattern-solid edge-thickness-normal edge-pattern-solid flowchart-link" style=";" data-edge="true" data-et="edge" data-id="L_Sync_Cache_0" data-points="W3sieCI6MTA4Ni42MzY3MTg3NSwieSI6NDgzLjcwMjY4NjgwMTMzMzZ9LHsieCI6MTIyNS45NDkyMTg3NSwieSI6NTI4fSx7IngiOjEyODAuNTUzNTA1MzQ1Mzk0OCwieSI6NTY1fV0=" marker-end="url(#my-svg_flowchart-v2-pointEnd)"/><path d="M1041.767,491L1050.438,497.167C1059.108,503.333,1076.448,515.667,1085.119,527.333C1093.789,539,1093.789,550,1093.789,555.5L1093.789,561" id="L_Sync_Request_0" class="edge-thickness-normal edge-pattern-solid edge-thickness-normal edge-pattern-solid flowchart-link" style=";" data-edge="true" data-et="edge" data-id="L_Sync_Request_0" data-points="W3sieCI6MTA0MS43NjczMjExMzQ4NjgzLCJ5Ijo0OTF9LHsieCI6MTA5My43ODkwNjI1LCJ5Ijo1Mjh9LHsieCI6MTA5My43ODkwNjI1LCJ5Ijo1NjV9XQ==" marker-end="url(#my-svg_flowchart-v2-pointEnd)"/><path d="M887.23,485.235L865.848,492.362C844.466,499.49,801.702,513.745,780.32,526.372C758.938,539,758.938,550,758.938,555.5L758.938,561" id="L_Sync_Retry_0" class="edge-thickness-normal edge-pattern-solid edge-thickness-normal edge-pattern-solid flowchart-link" style=";" data-edge="true" data-et="edge" data-id="L_Sync_Retry_0" data-points="W3sieCI6ODg3LjIzMDQ2ODc1LCJ5Ijo0ODUuMjM0OTQ0NDAzNTE1Njd9LHsieCI6NzU4LjkzNzUsInkiOjUyOH0seyJ4Ijo3NTguOTM3NSwieSI6NTY1fV0=" marker-end="url(#my-svg_flowchart-v2-pointEnd)"/><path d="M1338.109,643L1338.109,647.167C1338.109,651.333,1338.109,659.667,1338.109,668C1338.109,676.333,1338.109,684.667,1338.109,693C1338.109,701.333,1338.109,709.667,1327.963,718.747C1317.816,727.827,1297.522,737.655,1287.376,742.568L1277.229,747.482" id="L_Cache_IDB_0" class="edge-thickness-normal edge-pattern-solid edge-thickness-normal edge-pattern-solid flowchart-link" style=";" data-edge="true" data-et="edge" data-id="L_Cache_IDB_0" data-points="W3sieCI6MTMzOC4xMDkzNzUsInkiOjY0M30seyJ4IjoxMzM4LjEwOTM3NSwieSI6NjY4fSx7IngiOjEzMzguMTA5Mzc1LCJ5Ijo2OTN9LHsieCI6MTMzOC4xMDkzNzUsInkiOjcxOH0seyJ4IjoxMjczLjYyODkwNjI1LCJ5Ijo3NDkuMjI1MzcxNjc4NTM4N31d" marker-end="url(#my-svg_flowchart-v2-pointEnd)"/><path d="M1093.789,643L1093.789,647.167C1093.789,651.333,1093.789,659.667,1093.789,668C1093.789,676.333,1093.789,684.667,1093.789,693C1093.789,701.333,1093.789,709.667,1100.623,717.733C1107.458,725.8,1121.127,733.599,1127.961,737.499L1134.795,741.399" id="L_Request_IDB_0" class="edge-thickness-normal edge-pattern-solid edge-thickness-normal edge-pattern-solid flowchart-link" style=";" data-edge="true" data-et="edge" data-id="L_Request_IDB_0" data-points="W3sieCI6MTA5My43ODkwNjI1LCJ5Ijo2NDN9LHsieCI6MTA5My43ODkwNjI1LCJ5Ijo2Njh9LHsieCI6MTA5My43ODkwNjI1LCJ5Ijo2OTN9LHsieCI6MTA5My43ODkwNjI1LCJ5Ijo3MTh9LHsieCI6MTEzOC4yNjk1MzEyNSwieSI6NzQzLjM4MTExNjU2NzQwODV9XQ==" marker-end="url(#my-svg_flowchart-v2-pointEnd)"/><path d="M862.531,625.058L897.741,632.215C932.951,639.372,1003.37,653.686,1038.579,665.01C1073.789,676.333,1073.789,684.667,1073.789,693C1073.789,701.333,1073.789,709.667,1083.936,718.747C1094.083,727.827,1114.376,737.655,1124.523,742.568L1134.669,747.482" id="L_Retry_IDB_0" class="edge-thickness-normal edge-pattern-solid edge-thickness-normal edge-pattern-solid flowchart-link" style=";" data-edge="true" data-et="edge" data-id="L_Retry_IDB_0" data-points="W3sieCI6ODYyLjUzMTI1LCJ5Ijo2MjUuMDU3NTQxOTk2NDc2NX0seyJ4IjoxMDczLjc4OTA2MjUsInkiOjY2OH0seyJ4IjoxMDczLjc4OTA2MjUsInkiOjY5M30seyJ4IjoxMDczLjc4OTA2MjUsInkiOjcxOH0seyJ4IjoxMTM4LjI2OTUzMTI1LCJ5Ijo3NDkuMjI1MzcxNjc4NTM4N31d" marker-end="url(#my-svg_flowchart-v2-pointEnd)"/><path d="M1205.949,821L1205.949,825.167C1205.949,829.333,1205.949,837.667,1205.949,845.333C1205.949,853,1205.949,860,1205.949,863.5L1205.949,867" id="L_IDB_Fallback_0" class="edge-thickness-normal edge-pattern-solid edge-thickness-normal edge-pattern-solid flowchart-link" style=";" data-edge="true" data-et="edge" data-id="L_IDB_Fallback_0" data-points="W3sieCI6MTIwNS45NDkyMTg3NSwieSI6ODIxfSx7IngiOjEyMDUuOTQ5MjE4NzUsInkiOjg0Nn0seyJ4IjoxMjA1Ljk0OTIxODc1LCJ5Ijo4NzF9XQ==" marker-end="url(#my-svg_flowchart-v2-pointEnd)"/><path d="M1086.637,467.779L1150.058,477.816C1213.479,487.853,1340.322,507.926,1403.743,530.63C1467.164,553.333,1467.164,578.667,1467.164,602C1467.164,625.333,1467.164,646.667,1474.925,661.5C1482.686,676.333,1498.208,684.667,1505.969,693C1513.73,701.333,1513.73,709.667,1510.613,717.493C1507.495,725.318,1501.26,732.637,1498.142,736.296L1495.025,739.955" id="L_Sync_History_0" class="edge-thickness-normal edge-pattern-solid edge-thickness-normal edge-pattern-solid flowchart-link" style=";" data-edge="true" data-et="edge" data-id="L_Sync_History_0" data-points="W3sieCI6MTA4Ni42MzY3MTg3NSwieSI6NDY3Ljc3ODc1MjA2NDAzMTh9LHsieCI6MTQ2Ny4xNjQwNjI1LCJ5Ijo1Mjh9LHsieCI6MTQ2Ny4xNjQwNjI1LCJ5Ijo2MDR9LHsieCI6MTQ2Ny4xNjQwNjI1LCJ5Ijo2Njh9LHsieCI6MTUxMy43MzA0Njg3NSwieSI6NjkzfSx7IngiOjE1MTMuNzMwNDY4NzUsInkiOjcxOH0seyJ4IjoxNDkyLjQzMDcyNTA5NzY1NjIsInkiOjc0M31d" marker-end="url(#my-svg_flowchart-v2-pointEnd)"/><path d="M1086.547,276.347L1156.65,286.623C1226.753,296.898,1366.958,317.449,1437.061,331.891C1507.164,346.333,1507.164,354.667,1507.164,363C1507.164,371.333,1507.164,379.667,1507.164,394.5C1507.164,409.333,1507.164,430.667,1507.164,454C1507.164,477.333,1507.164,502.667,1507.164,528C1507.164,553.333,1507.164,578.667,1507.164,602C1507.164,625.333,1507.164,646.667,1494.743,661.5C1482.322,676.333,1457.479,684.667,1445.058,693C1432.637,701.333,1432.637,709.667,1434.111,717.384C1435.585,725.102,1438.533,732.204,1440.007,735.755L1441.481,739.306" id="L_AutoSync_History_0" class="edge-thickness-normal edge-pattern-solid edge-thickness-normal edge-pattern-solid flowchart-link" style=";" data-edge="true" data-et="edge" data-id="L_AutoSync_History_0" data-points="W3sieCI6MTA4Ni41NDY4NzUsInkiOjI3Ni4zNDczMzYwNjU1NzM3Nn0seyJ4IjoxNTA3LjE2NDA2MjUsInkiOjMzOH0seyJ4IjoxNTA3LjE2NDA2MjUsInkiOjM2M30seyJ4IjoxNTA3LjE2NDA2MjUsInkiOjM4OH0seyJ4IjoxNTA3LjE2NDA2MjUsInkiOjQ1Mn0seyJ4IjoxNTA3LjE2NDA2MjUsInkiOjUyOH0seyJ4IjoxNTA3LjE2NDA2MjUsInkiOjYwNH0seyJ4IjoxNTA3LjE2NDA2MjUsInkiOjY2OH0seyJ4IjoxNDMyLjYzNjcxODc1LCJ5Ijo2OTN9LHsieCI6MTQzMi42MzY3MTg3NSwieSI6NzE4fSx7IngiOjE0NDMuMDE0MjIxMTkxNDA2MiwieSI6NzQzfV0=" marker-end="url(#my-svg_flowchart-v2-pointEnd)"/><path d="M941.056,491L933.802,497.167C926.548,503.333,912.04,515.667,904.785,534.5C897.531,553.333,897.531,578.667,897.531,602C897.531,625.333,897.531,646.667,897.531,661.5C897.531,676.333,897.531,684.667,897.531,693C897.531,701.333,897.531,709.667,893.509,717.548C889.488,725.429,881.444,732.857,877.422,736.572L873.401,740.286" id="L_Sync_Telemetry_0" class="edge-thickness-normal edge-pattern-solid edge-thickness-normal edge-pattern-solid flowchart-link" style=";" data-edge="true" data-et="edge" data-id="L_Sync_Telemetry_0" data-points="W3sieCI6OTQxLjA1NjA3NTI0NjcxMDUsInkiOjQ5MX0seyJ4Ijo4OTcuNTMxMjUsInkiOjUyOH0seyJ4Ijo4OTcuNTMxMjUsInkiOjYwNH0seyJ4Ijo4OTcuNTMxMjUsInkiOjY2OH0seyJ4Ijo4OTcuNTMxMjUsInkiOjY5M30seyJ4Ijo4OTcuNTMxMjUsInkiOjcxOH0seyJ4Ijo4NzAuNDYyMTU4MjAzMTI1LCJ5Ijo3NDN9XQ==" marker-end="url(#my-svg_flowchart-v2-pointEnd)"/><path d="M1244.055,616.042L1176.418,624.702C1108.781,633.361,973.508,650.681,905.871,663.507C838.234,676.333,838.234,684.667,838.234,693C838.234,701.333,838.234,709.667,837.686,717.341C837.138,725.016,836.042,732.032,835.494,735.54L834.946,739.048" id="L_Cache_Telemetry_0" class="edge-thickness-normal edge-pattern-solid edge-thickness-normal edge-pattern-solid flowchart-link" style=";" data-edge="true" data-et="edge" data-id="L_Cache_Telemetry_0" data-points="W3sieCI6MTI0NC4wNTQ2ODc1LCJ5Ijo2MTYuMDQyMDEwNTAyNjI1N30seyJ4Ijo4MzguMjM0Mzc1LCJ5Ijo2Njh9LHsieCI6ODM4LjIzNDM3NSwieSI6NjkzfSx7IngiOjgzOC4yMzQzNzUsInkiOjcxOH0seyJ4Ijo4MzQuMzI4MTI1LCJ5Ijo3NDN9XQ==" marker-end="url(#my-svg_flowchart-v2-pointEnd)"/><path d="M993.523,627.288L964.309,634.073C935.094,640.858,876.664,654.429,847.449,665.381C818.234,676.333,818.234,684.667,818.234,693C818.234,701.333,818.234,709.667,818.782,717.341C819.331,725.016,820.427,732.032,820.975,735.54L821.523,739.048" id="L_Request_Telemetry_0" class="edge-thickness-normal edge-pattern-solid edge-thickness-normal edge-pattern-solid flowchart-link" style=";" data-edge="true" data-et="edge" data-id="L_Request_Telemetry_0" data-points="W3sieCI6OTkzLjUyMzQzNzUsInkiOjYyNy4yODc1NzMzNjA1NTEyfSx7IngiOjgxOC4yMzQzNzUsInkiOjY2OH0seyJ4Ijo4MTguMjM0Mzc1LCJ5Ijo2OTN9LHsieCI6ODE4LjIzNDM3NSwieSI6NzE4fSx7IngiOjgyMi4xNDA2MjUsInkiOjc0M31d" marker-end="url(#my-svg_flowchart-v2-pointEnd)"/><path d="M758.938,643L758.938,647.167C758.938,651.333,758.938,659.667,758.938,668C758.938,676.333,758.938,684.667,758.938,693C758.938,701.333,758.938,709.667,762.959,717.548C766.981,725.429,775.025,732.857,779.046,736.572L783.068,740.286" id="L_Retry_Telemetry_0" class="edge-thickness-normal edge-pattern-solid edge-thickness-normal edge-pattern-solid flowchart-link" style=";" data-edge="true" data-et="edge" data-id="L_Retry_Telemetry_0" data-points="W3sieCI6NzU4LjkzNzUsInkiOjY0M30seyJ4Ijo3NTguOTM3NSwieSI6NjY4fSx7IngiOjc1OC45Mzc1LCJ5Ijo2OTN9LHsieCI6NzU4LjkzNzUsInkiOjcxOH0seyJ4Ijo3ODYuMDA2NTkxNzk2ODc1LCJ5Ijo3NDN9XQ==" marker-end="url(#my-svg_flowchart-v2-pointEnd)"/><path d="M719.898,793.264L635.366,802.054C550.833,810.843,381.768,828.421,291.401,841.013C201.033,853.605,189.363,861.211,183.529,865.013L177.694,868.816" id="L_Telemetry_Debug_0" class="edge-thickness-normal edge-pattern-solid edge-thickness-normal edge-pattern-solid flowchart-link" style=";" data-edge="true" data-et="edge" data-id="L_Telemetry_Debug_0" data-points="W3sieCI6NzE5Ljg5ODQzNzUsInkiOjc5My4yNjQyNTM0Mzk2MTAxfSx7IngiOjIxMi43MDMxMjUsInkiOjg0Nn0seyJ4IjoxNzQuMzQyNTI5Mjk2ODc1LCJ5Ijo4NzF9XQ==" marker-end="url(#my-svg_flowchart-v2-pointEnd)"/><path d="M828.234,821L828.234,825.167C828.234,829.333,828.234,837.667,806.533,847.899C784.831,858.132,741.428,870.264,719.726,876.33L698.024,882.396" id="L_Telemetry_Stores_0" class="edge-thickness-normal edge-pattern-solid edge-thickness-normal edge-pattern-solid flowchart-link" style=";" data-edge="true" data-et="edge" data-id="L_Telemetry_Stores_0" data-points="W3sieCI6ODI4LjIzNDM3NSwieSI6ODIxfSx7IngiOjgyOC4yMzQzNzUsInkiOjg0Nn0seyJ4Ijo2OTQuMTcxODc1LCJ5Ijo4ODMuNDcyMzYyNDk0ODgyfV0=" marker-end="url(#my-svg_flowchart-v2-pointEnd)"/><path d="M504.359,887.41L475.365,880.508C446.37,873.606,388.38,859.803,359.385,842.235C330.391,824.667,330.391,803.333,330.391,782C330.391,760.667,330.391,739.333,330.391,724.5C330.391,709.667,330.391,701.333,330.391,693C330.391,684.667,330.391,676.333,330.391,661.5C330.391,646.667,330.391,625.333,330.391,602C330.391,578.667,330.391,553.333,330.391,528C330.391,502.667,330.391,477.333,330.391,454C330.391,430.667,330.391,409.333,330.391,394.5C330.391,379.667,330.391,371.333,330.391,363C330.391,354.667,330.391,346.333,352.344,335.376C374.297,324.418,418.202,310.837,440.155,304.046L462.108,297.255" id="L_Stores_Hooks_0" class="edge-thickness-normal edge-pattern-dotted edge-thickness-normal edge-pattern-solid flowchart-link" style=";" data-edge="true" data-et="edge" data-id="L_Stores_Hooks_0" data-points="W3sieCI6NTA0LjM1OTM3NSwieSI6ODg3LjQwOTU3Njk0MDk1Nzd9LHsieCI6MzMwLjM5MDYyNSwieSI6ODQ2fSx7IngiOjMzMC4zOTA2MjUsInkiOjc4Mn0seyJ4IjozMzAuMzkwNjI1LCJ5Ijo3MTh9LHsieCI6MzMwLjM5MDYyNSwieSI6NjkzfSx7IngiOjMzMC4zOTA2MjUsInkiOjY2OH0seyJ4IjozMzAuMzkwNjI1LCJ5Ijo2MDR9LHsieCI6MzMwLjM5MDYyNSwieSI6NTI4fSx7IngiOjMzMC4zOTA2MjUsInkiOjQ1Mn0seyJ4IjozMzAuMzkwNjI1LCJ5IjozODh9LHsieCI6MzMwLjM5MDYyNSwieSI6MzYzfSx7IngiOjMzMC4zOTA2MjUsInkiOjMzOH0seyJ4Ijo0NjUuOTI5Njg3NSwieSI6Mjk2LjA3Mjg4MjIxODI2NTF9XQ==" marker-end="url(#my-svg_flowchart-v2-pointEnd)"/><path d="M102.313,871L101.01,866.833C99.708,862.667,97.104,854.333,95.802,839.5C94.5,824.667,94.5,803.333,94.5,782C94.5,760.667,94.5,739.333,94.5,724.5C94.5,709.667,94.5,701.333,94.5,693C94.5,684.667,94.5,676.333,94.5,661.5C94.5,646.667,94.5,625.333,94.5,602C94.5,578.667,94.5,553.333,94.5,528C94.5,502.667,94.5,477.333,94.5,454C94.5,430.667,94.5,409.333,94.5,394.5C94.5,379.667,94.5,371.333,94.5,363C94.5,354.667,94.5,346.333,94.5,329.5C94.5,312.667,94.5,287.333,94.5,262C94.5,236.667,94.5,211.333,94.5,194.5C94.5,177.667,94.5,169.333,94.5,161C94.5,152.667,94.5,144.333,165.11,131.842C235.72,119.35,376.94,102.7,447.55,94.374L518.16,86.049" id="L_Debug_UI_0" class="edge-thickness-normal edge-pattern-dotted edge-thickness-normal edge-pattern-solid flowchart-link" style=";" data-edge="true" data-et="edge" data-id="L_Debug_UI_0" data-points="W3sieCI6MTAyLjMxMjUsInkiOjg3MX0seyJ4Ijo5NC41LCJ5Ijo4NDZ9LHsieCI6OTQuNSwieSI6NzgyfSx7IngiOjk0LjUsInkiOjcxOH0seyJ4Ijo5NC41LCJ5Ijo2OTN9LHsieCI6OTQuNSwieSI6NjY4fSx7IngiOjk0LjUsInkiOjYwNH0seyJ4Ijo5NC41LCJ5Ijo1Mjh9LHsieCI6OTQuNSwieSI6NDUyfSx7IngiOjk0LjUsInkiOjM4OH0seyJ4Ijo5NC41LCJ5IjozNjN9LHsieCI6OTQuNSwieSI6MzM4fSx7IngiOjk0LjUsInkiOjI2Mn0seyJ4Ijo5NC41LCJ5IjoxODZ9LHsieCI6OTQuNSwieSI6MTYxfSx7IngiOjk0LjUsInkiOjEzNn0seyJ4Ijo1MjIuMTMyODEyNSwieSI6ODUuNTgwOTIxNDAyOTczNDd9XQ==" marker-end="url(#my-svg_flowchart-v2-pointEnd)"/></g><g class="edgeLabels"><g class="edgeLabel"><g class="label" data-id="L_UI_Hooks_0" transform="translate(0, 0)"><foreignObject width="0" height="0"><div xmlns="http://www.w3.org/1999/xhtml" class="labelBkg" style="display: table-cell; white-space: nowrap; line-height: 1.5; max-width: 200px; text-align: center;"><span class="edgeLabel"></span></div></foreignObject></g></g><g class="edgeLabel"><g class="label" data-id="L_Sections_ChartHooks_0" transform="translate(0, 0)"><foreignObject width="0" height="0"><div xmlns="http://www.w3.org/1999/xhtml" class="labelBkg" style="display: table-cell; white-space: nowrap; line-height: 1.5; max-width: 200px; text-align: center;"><span class="edgeLabel"></span></div></foreignObject></g></g><g class="edgeLabel"><g class="label" data-id="L_Controls_Hooks_0" transform="translate(0, 0)"><foreignObject width="0" height="0"><div xmlns="http://www.w3.org/1999/xhtml" class="labelBkg" style="display: table-cell; white-space: nowrap; line-height: 1.5; max-width: 200px; text-align: center;"><span class="edgeLabel"></span></div></foreignObject></g></g><g class="edgeLabel"><g class="label" data-id="L_Hooks_Sync_0" transform="translate(0, 0)"><foreignObject width="0" height="0"><div xmlns="http://www.w3.org/1999/xhtml" class="labelBkg" style="display: table-cell; white-space: nowrap; line-height: 1.5; max-width: 200px; text-align: center;"><span class="edgeLabel"></span></div></foreignObject></g></g><g class="edgeLabel"><g class="label" data-id="L_ChartHooks_Cache_0" transform="translate(0, 0)"><foreignObject width="0" height="0"><div xmlns="http://www.w3.org/1999/xhtml" class="labelBkg" style="display: table-cell; white-space: nowrap; line-height: 1.5; max-width: 200px; text-align: center;"><span class="edgeLabel"></span></div></foreignObject></g></g><g class="edgeLabel"><g class="label" data-id="L_AutoSync_Sync_0" transform="translate(0, 0)"><foreignObject width="0" height="0"><div xmlns="http://www.w3.org/1999/xhtml" class="labelBkg" style="display: table-cell; white-space: nowrap; line-height: 1.5; max-width: 200px; text-align: center;"><span class="edgeLabel"></span></div></foreignObject></g></g><g class="edgeLabel"><g class="label" data-id="L_Sync_Range_0" transform="translate(0, 0)"><foreignObject width="0" height="0"><div xmlns="http://www.w3.org/1999/xhtml" class="labelBkg" style="display: table-cell; white-space: nowrap; line-height: 1.5; max-width: 200px; text-align: center;"><span class="edgeLabel"></span></div></foreignObject></g></g><g class="edgeLabel"><g class="label" data-id="L_Sync_Cache_0" transform="translate(0, 0)"><foreignObject width="0" height="0"><div xmlns="http://www.w3.org/1999/xhtml" class="labelBkg" style="display: table-cell; white-space: nowrap; line-height: 1.5; max-width: 200px; text-align: center;"><span class="edgeLabel"></span></div></foreignObject></g></g><g class="edgeLabel"><g class="label" data-id="L_Sync_Request_0" transform="translate(0, 0)"><foreignObject width="0" height="0"><div xmlns="http://www.w3.org/1999/xhtml" class="labelBkg" style="display: table-cell; white-space: nowrap; line-height: 1.5; max-width: 200px; text-align: center;"><span class="edgeLabel"></span></div></foreignObject></g></g><g class="edgeLabel"><g class="label" data-id="L_Sync_Retry_0" transform="translate(0, 0)"><foreignObject width="0" height="0"><div xmlns="http://www.w3.org/1999/xhtml" class="labelBkg" style="display: table-cell; white-space: nowrap; line-height: 1.5; max-width: 200px; text-align: center;"><span class="edgeLabel"></span></div></foreignObject></g></g><g class="edgeLabel"><g class="label" data-id="L_Cache_IDB_0" transform="translate(0, 0)"><foreignObject width="0" height="0"><div xmlns="http://www.w3.org/1999/xhtml" class="labelBkg" style="display: table-cell; white-space: nowrap; line-height: 1.5; max-width: 200px; text-align: center;"><span class="edgeLabel"></span></div></foreignObject></g></g><g class="edgeLabel"><g class="label" data-id="L_Request_IDB_0" transform="translate(0, 0)"><foreignObject width="0" height="0"><div xmlns="http://www.w3.org/1999/xhtml" class="labelBkg" style="display: table-cell; white-space: nowrap; line-height: 1.5; max-width: 200px; text-align: center;"><span class="edgeLabel"></span></div></foreignObject></g></g><g class="edgeLabel"><g class="label" data-id="L_Retry_IDB_0" transform="translate(0, 0)"><foreignObject width="0" height="0"><div xmlns="http://www.w3.org/1999/xhtml" class="labelBkg" style="display: table-cell; white-space: nowrap; line-height: 1.5; max-width: 200px; text-align: center;"><span class="edgeLabel"></span></div></foreignObject></g></g><g class="edgeLabel"><g class="label" data-id="L_IDB_Fallback_0" transform="translate(0, 0)"><foreignObject width="0" height="0"><div xmlns="http://www.w3.org/1999/xhtml" class="labelBkg" style="display: table-cell; white-space: nowrap; line-height: 1.5; max-width: 200px; text-align: center;"><span class="edgeLabel"></span></div></foreignObject></g></g><g class="edgeLabel"><g class="label" data-id="L_Sync_History_0" transform="translate(0, 0)"><foreignObject width="0" height="0"><div xmlns="http://www.w3.org/1999/xhtml" class="labelBkg" style="display: table-cell; white-space: nowrap; line-height: 1.5; max-width: 200px; text-align: center;"><span class="edgeLabel"></span></div></foreignObject></g></g><g class="edgeLabel"><g class="label" data-id="L_AutoSync_History_0" transform="translate(0, 0)"><foreignObject width="0" height="0"><div xmlns="http://www.w3.org/1999/xhtml" class="labelBkg" style="display: table-cell; white-space: nowrap; line-height: 1.5; max-width: 200px; text-align: center;"><span class="edgeLabel"></span></div></foreignObject></g></g><g class="edgeLabel"><g class="label" data-id="L_Sync_Telemetry_0" transform="translate(0, 0)"><foreignObject width="0" height="0"><div xmlns="http://www.w3.org/1999/xhtml" class="labelBkg" style="display: table-cell; white-space: nowrap; line-height: 1.5; max-width: 200px; text-align: center;"><span class="edgeLabel"></span></div></foreignObject></g></g><g class="edgeLabel"><g class="label" data-id="L_Cache_Telemetry_0" transform="translate(0, 0)"><foreignObject width="0" height="0"><div xmlns="http://www.w3.org/1999/xhtml" class="labelBkg" style="display: table-cell; white-space: nowrap; line-height: 1.5; max-width: 200px; text-align: center;"><span class="edgeLabel"></span></div></foreignObject></g></g><g class="edgeLabel"><g class="label" data-id="L_Request_Telemetry_0" transform="translate(0, 0)"><foreignObject width="0" height="0"><div xmlns="http://www.w3.org/1999/xhtml" class="labelBkg" style="display: table-cell; white-space: nowrap; line-height: 1.5; max-width: 200px; text-align: center;"><span class="edgeLabel"></span></div></foreignObject></g></g><g class="edgeLabel"><g class="label" data-id="L_Retry_Telemetry_0" transform="translate(0, 0)"><foreignObject width="0" height="0"><div xmlns="http://www.w3.org/1999/xhtml" class="labelBkg" style="display: table-cell; white-space: nowrap; line-height: 1.5; max-width: 200px; text-align: center;"><span class="edgeLabel"></span></div></foreignObject></g></g><g class="edgeLabel"><g class="label" data-id="L_Telemetry_Debug_0" transform="translate(0, 0)"><foreignObject width="0" height="0"><div xmlns="http://www.w3.org/1999/xhtml" class="labelBkg" style="display: table-cell; white-space: nowrap; line-height: 1.5; max-width: 200px; text-align: center;"><span class="edgeLabel"></span></div></foreignObject></g></g><g class="edgeLabel"><g class="label" data-id="L_Telemetry_Stores_0" transform="translate(0, 0)"><foreignObject width="0" height="0"><div xmlns="http://www.w3.org/1999/xhtml" class="labelBkg" style="display: table-cell; white-space: nowrap; line-height: 1.5; max-width: 200px; text-align: center;"><span class="edgeLabel"></span></div></foreignObject></g></g><g class="edgeLabel" transform="translate(330.390625, 604)"><g class="label" data-id="L_Stores_Hooks_0" transform="translate(-32.796875, -12)"><foreignObject width="65.59375" height="24"><div xmlns="http://www.w3.org/1999/xhtml" class="labelBkg" style="display: table-cell; white-space: nowrap; line-height: 1.5; max-width: 200px; text-align: center;"><span class="edgeLabel"><p>feedback</p></span></div></foreignObject></g></g><g class="edgeLabel" transform="translate(94.5, 528)"><g class="label" data-id="L_Debug_UI_0" transform="translate(-32.796875, -12)"><foreignObject width="65.59375" height="24"><div xmlns="http://www.w3.org/1999/xhtml" class="labelBkg" style="display: table-cell; white-space: nowrap; line-height: 1.5; max-width: 200px; text-align: center;"><span class="edgeLabel"><p>feedback</p></span></div></foreignObject></g></g></g><g class="nodes"><g class="node default" id="flowchart-UI-0" transform="translate(637.3203125, 72)"><rect class="basic label-container" style="fill:#3b82f6 !important;stroke:#1e40af !important" x="-115.1875" y="-39" width="230.375" height="78"/><g class="label" style="color:#fff !important" transform="translate(-85.1875, -24)"><rect/><foreignObject width="170.375" height="48"><div style="color: rgb(255, 255, 255) !important; display: table-cell; white-space: nowrap; line-height: 1.5; max-width: 200px; text-align: center;" xmlns="http://www.w3.org/1999/xhtml"><span style="color:#fff !important" class="nodeLabel"><p>GarminTab<br />Container/View Pattern</p></span></div></foreignObject></g></g><g class="node default" id="flowchart-Sections-1" transform="translate(1445.5078125, 72)"><rect class="basic label-container" style="" x="-131.8984375" y="-39" width="263.796875" height="78"/><g class="label" style="" transform="translate(-101.8984375, -24)"><rect/><foreignObject width="203.796875" height="48"><div xmlns="http://www.w3.org/1999/xhtml" style="display: table; white-space: break-spaces; line-height: 1.5; max-width: 200px; text-align: center; width: 200px;"><span class="nodeLabel"><p>Dashboard/Charts/Activities<br />Lazy Loaded</p></span></div></foreignObject></g></g><g class="node default" id="flowchart-Controls-2" transform="translate(141.6953125, 72)"><rect class="basic label-container" style="" x="-85.4453125" y="-39" width="170.890625" height="78"/><g class="label" style="" transform="translate(-55.4453125, -24)"><rect/><foreignObject width="110.890625" height="48"><div xmlns="http://www.w3.org/1999/xhtml" style="display: table-cell; white-space: nowrap; line-height: 1.5; max-width: 200px; text-align: center;"><span class="nodeLabel"><p>SyncControls<br />TimeNavigation</p></span></div></foreignObject></g></g><g class="node default" id="flowchart-Hooks-3" transform="translate(576.078125, 262)"><rect class="basic label-container" style="fill:#8b5cf6 !important;stroke:#6d28d9 !important" x="-110.1484375" y="-51" width="220.296875" height="102"/><g class="label" style="color:#fff !important" transform="translate(-80.1484375, -36)"><rect/><foreignObject width="160.296875" height="72"><div style="color: rgb(255, 255, 255) !important; display: table-cell; white-space: nowrap; line-height: 1.5; max-width: 200px; text-align: center;" xmlns="http://www.w3.org/1999/xhtml"><span style="color:#fff !important" class="nodeLabel"><p>useGarminSyncActions<br />useGarminData<br />useGarminSelectors</p></span></div></foreignObject></g></g><g class="node default" id="flowchart-ChartHooks-4" transform="translate(1445.5078125, 262)"><rect class="basic label-container" style="" x="-122.6484375" y="-39" width="245.296875" height="78"/><g class="label" style="" transform="translate(-92.6484375, -24)"><rect/><foreignObject width="185.296875" height="48"><div xmlns="http://www.w3.org/1999/xhtml" style="display: table-cell; white-space: nowrap; line-height: 1.5; max-width: 200px; text-align: center;"><span class="nodeLabel"><p>useGarminChartSelectors<br />useGarminDerivedDataset</p></span></div></foreignObject></g></g><g class="node default" id="flowchart-AutoSync-5" transform="translate(988.6640625, 262)"><rect class="basic label-container" style="" x="-97.8828125" y="-39" width="195.765625" height="78"/><g class="label" style="" transform="translate(-67.8828125, -24)"><rect/><foreignObject width="135.765625" height="48"><div xmlns="http://www.w3.org/1999/xhtml" style="display: table-cell; white-space: nowrap; line-height: 1.5; max-width: 200px; text-align: center;"><span class="nodeLabel"><p>useAutoSync<br />AutoSyncScheduler</p></span></div></foreignObject></g></g><g class="node default" id="flowchart-Sync-6" transform="translate(986.93359375, 452)"><rect class="basic label-container" style="fill:#10b981 !important;stroke:#059669 !important" x="-99.703125" y="-39" width="199.40625" height="78"/><g class="label" style="color:#fff !important" transform="translate(-69.703125, -24)"><rect/><foreignObject width="139.40625" height="48"><div style="color: rgb(255, 255, 255) !important; display: table-cell; white-space: nowrap; line-height: 1.5; max-width: 200px; text-align: center;" xmlns="http://www.w3.org/1999/xhtml"><span style="color:#fff !important" class="nodeLabel"><p>SyncOrchestrator<br />SyncPipelineRunner</p></span></div></foreignObject></g></g><g class="node default" id="flowchart-Range-7" transform="translate(511.765625, 604)"><rect class="basic label-container" style="" x="-93.578125" y="-27" width="187.15625" height="54"/><g class="label" style="" transform="translate(-63.578125, -12)"><rect/><foreignObject width="127.15625" height="24"><div xmlns="http://www.w3.org/1999/xhtml" style="display: table-cell; white-space: nowrap; line-height: 1.5; max-width: 200px; text-align: center;"><span class="nodeLabel"><p>SyncRangeService</p></span></div></foreignObject></g></g><g class="node default" id="flowchart-Cache-8" transform="translate(1338.109375, 604)"><rect class="basic label-container" style="" x="-94.0546875" y="-39" width="188.109375" height="78"/><g class="label" style="" transform="translate(-64.0546875, -24)"><rect/><foreignObject width="128.109375" height="48"><div xmlns="http://www.w3.org/1999/xhtml" style="display: table-cell; white-space: nowrap; line-height: 1.5; max-width: 200px; text-align: center;"><span class="nodeLabel"><p>SyncCacheService<br />CacheCoordinator</p></span></div></foreignObject></g></g><g class="node default" id="flowchart-Request-9" transform="translate(1093.7890625, 604)"><rect class="basic label-container" style="" x="-100.265625" y="-39" width="200.53125" height="78"/><g class="label" style="" transform="translate(-70.265625, -24)"><rect/><foreignObject width="140.53125" height="48"><div xmlns="http://www.w3.org/1999/xhtml" style="display: table-cell; white-space: nowrap; line-height: 1.5; max-width: 200px; text-align: center;"><span class="nodeLabel"><p>SyncRequestService<br />CircuitBreaker</p></span></div></foreignObject></g></g><g class="node default" id="flowchart-Retry-10" transform="translate(758.9375, 604)"><rect class="basic label-container" style="" x="-103.59375" y="-39" width="207.1875" height="78"/><g class="label" style="" transform="translate(-73.59375, -24)"><rect/><foreignObject width="147.1875" height="48"><div xmlns="http://www.w3.org/1999/xhtml" style="display: table-cell; white-space: nowrap; line-height: 1.5; max-width: 200px; text-align: center;"><span class="nodeLabel"><p>SyncRetryService<br />DegradedModePolicy</p></span></div></foreignObject></g></g><g class="node default" id="flowchart-IDB-11" transform="translate(1205.94921875, 782)"><rect class="basic label-container" style="fill:#f59e0b !important;stroke:#d97706 !important" x="-67.6796875" y="-39" width="135.359375" height="78"/><g class="label" style="color:#fff !important" transform="translate(-37.6796875, -24)"><rect/><foreignObject width="75.359375" height="48"><div style="color: rgb(255, 255, 255) !important; display: table-cell; white-space: nowrap; line-height: 1.5; max-width: 200px; text-align: center;" xmlns="http://www.w3.org/1999/xhtml"><span style="color:#fff !important" class="nodeLabel"><p>IndexedDB<br />idb library</p></span></div></foreignObject></g></g><g class="node default" id="flowchart-Fallback-12" transform="translate(1205.94921875, 910)"><rect class="basic label-container" style="" x="-74.1796875" y="-39" width="148.359375" height="78"/><g class="label" style="" transform="translate(-44.1796875, -24)"><rect/><foreignObject width="88.359375" height="48"><div xmlns="http://www.w3.org/1999/xhtml" style="display: table-cell; white-space: nowrap; line-height: 1.5; max-width: 200px; text-align: center;"><span class="nodeLabel"><p>localStorage<br />Fallback</p></span></div></foreignObject></g></g><g class="node default" id="flowchart-History-13" transform="translate(1459.203125, 782)"><rect class="basic label-container" style="" x="-104.5078125" y="-39" width="209.015625" height="78"/><g class="label" style="" transform="translate(-74.5078125, -24)"><rect/><foreignObject width="149.015625" height="48"><div xmlns="http://www.w3.org/1999/xhtml" style="display: table-cell; white-space: nowrap; line-height: 1.5; max-width: 200px; text-align: center;"><span class="nodeLabel"><p>ForcedRangesHistory<br />AutoSyncHistory</p></span></div></foreignObject></g></g><g class="node default" id="flowchart-Telemetry-14" transform="translate(828.234375, 782)"><rect class="basic label-container" style="fill:#ef4444 !important;stroke:#dc2626 !important" x="-108.3359375" y="-39" width="216.671875" height="78"/><g class="label" style="color:#fff !important" transform="translate(-78.3359375, -24)"><rect/><foreignObject width="156.671875" height="48"><div style="color: rgb(255, 255, 255) !important; display: table-cell; white-space: nowrap; line-height: 1.5; max-width: 200px; text-align: center;" xmlns="http://www.w3.org/1999/xhtml"><span style="color:#fff !important" class="nodeLabel"><p>TelemetryCoordinator<br />telemetryEvents</p></span></div></foreignObject></g></g><g class="node default" id="flowchart-Debug-15" transform="translate(114.5, 910)"><rect class="basic label-container" style="" x="-71.5" y="-39" width="143" height="78"/><g class="label" style="" transform="translate(-41.5, -24)"><rect/><foreignObject width="83" height="48"><div xmlns="http://www.w3.org/1999/xhtml" style="display: table-cell; white-space: nowrap; line-height: 1.5; max-width: 200px; text-align: center;"><span class="nodeLabel"><p>DebugPanel<br />Diagnostics</p></span></div></foreignObject></g></g><g class="node default" id="flowchart-Stores-16" transform="translate(599.265625, 910)"><rect class="basic label-container" style="" x="-94.90625" y="-39" width="189.8125" height="78"/><g class="label" style="" transform="translate(-64.90625, -24)"><rect/><foreignObject width="129.8125" height="48"><div xmlns="http://www.w3.org/1999/xhtml" style="display: table-cell; white-space: nowrap; line-height: 1.5; max-width: 200px; text-align: center;"><span class="nodeLabel"><p>window._<em>GARMIN</em>*<br />Global Stores</p></span></div></foreignObject></g></g></g></g></g></svg>